<svg width="160" height="24" viewBox="0 0 160 24" xmlns="http://www.w3.org/2000/svg">
<path class="test" d="M62.7559 18.5988V7.36004H65.9775C66.9701 7.36004 67.8485 7.57628 68.6114 8.00876C69.3743 8.44124 69.9635 9.05604 70.379 9.85386C70.7946 10.6517 71.0049 11.5675 71.0099 12.6021V13.32C71.0099 14.38 70.8025 15.3086 70.3869 16.1064C69.9714 16.9042 69.3786 17.5162 68.6078 17.9437C67.837 18.3706 66.9392 18.5896 65.9151 18.5995H62.7559V18.5988ZM64.2608 8.57197V17.3869H65.844C67.0045 17.3869 67.9066 17.0314 68.5526 16.3205C69.1977 15.6096 69.5207 14.5977 69.5207 13.284V12.6275C69.5207 11.3506 69.2164 10.3577 68.6078 9.64964C67.9992 8.94156 67.1351 8.58257 66.017 8.57197H64.2608Z"/>
<path class="test" d="M75.9323 18.7529C74.7826 18.7529 73.8475 18.3812 73.1262 17.6378C72.405 16.8944 72.0447 15.9001 72.0447 14.6542V14.3921C72.0447 13.5638 72.2054 12.824 72.527 12.1731C72.8485 11.5223 73.2977 11.0128 73.8755 10.6446C74.4525 10.2764 75.079 10.0927 75.7529 10.0927C76.8553 10.0927 77.7129 10.4503 78.3244 11.1654C78.9358 11.8806 79.2416 12.9045 79.2416 14.2373V14.8316H73.4958C73.5166 15.6549 73.7614 16.3198 74.2286 16.8272C74.6965 17.3339 75.2907 17.5876 76.012 17.5876C76.5244 17.5876 76.9579 17.4844 77.3132 17.2788C77.6684 17.0731 77.9799 16.8004 78.2461 16.4605L79.1318 17.1396C78.4213 18.2151 77.3548 18.7529 75.9338 18.7529H75.9323ZM75.7522 11.2658C75.1666 11.2658 74.6757 11.4757 74.2781 11.8947C73.8812 12.3145 73.6351 12.9017 73.541 13.6585H77.7897V13.5504C77.7481 12.8247 77.5493 12.2629 77.194 11.8636C76.8388 11.4651 76.3579 11.2651 75.7515 11.2651L75.7522 11.2658Z"/>
<path class="test" d="M85.1955 16.3834C85.1955 15.9976 85.0477 15.698 84.7527 15.4846C84.457 15.2711 83.9424 15.0867 83.2082 14.9327C82.4741 14.7786 81.8913 14.5928 81.46 14.3772C81.0287 14.1617 80.71 13.9038 80.5033 13.6055C80.2966 13.3073 80.194 12.9519 80.194 12.5406C80.194 11.8565 80.4882 11.2771 81.076 10.8036C81.6638 10.3302 82.4152 10.0934 83.3295 10.0934C84.2912 10.0934 85.0713 10.3379 85.6692 10.8269C86.2677 11.316 86.567 11.9413 86.567 12.7024H85.1087C85.1087 12.3116 84.94 11.9746 84.6034 11.6912C84.2661 11.4085 83.842 11.2665 83.3295 11.2665C82.8171 11.2665 82.3887 11.3796 82.0908 11.6064C81.793 11.8332 81.6437 12.1286 81.6437 12.494C81.6437 12.8388 81.7822 13.0989 82.0592 13.2734C82.3363 13.4487 82.8365 13.6154 83.5606 13.7751C84.284 13.9348 84.8711 14.1249 85.3204 14.3461C85.7696 14.5673 86.1026 14.8337 86.3201 15.1447C86.5368 15.4563 86.6452 15.8358 86.6452 16.2831C86.6452 17.0293 86.3423 17.6272 85.7359 18.078C85.1295 18.5282 84.3429 18.7536 83.3762 18.7536C82.6965 18.7536 82.0958 18.6349 81.5734 18.3988C81.0509 18.1621 80.6418 17.8314 80.3469 17.4067C80.0519 16.982 79.9041 16.5227 79.9041 16.0287H81.3545C81.3803 16.5071 81.5755 16.8866 81.9387 17.1671C82.3018 17.4477 82.7812 17.5876 83.3769 17.5876C83.9259 17.5876 84.3659 17.4781 84.6982 17.2597C85.0297 17.0413 85.1962 16.7488 85.1962 16.3834H85.1955Z"/>
<path class="test" d="M87.8394 8.03138C87.8394 7.79959 87.9111 7.60455 88.0547 7.44485C88.1982 7.28514 88.4113 7.20529 88.6934 7.20529C88.9754 7.20529 89.19 7.28514 89.3364 7.44485C89.4828 7.60455 89.556 7.8003 89.556 8.03138C89.556 8.26245 89.4828 8.45608 89.3364 8.61013C89.19 8.76419 88.9762 8.84192 88.6934 8.84192C88.4106 8.84192 88.1982 8.76489 88.0547 8.61013C87.9111 8.45608 87.8394 8.26245 87.8394 8.03138ZM89.4075 18.5981H87.9571V10.2468H89.4075V18.5981Z"/>
<path class="test" d="M90.7151 14.3532C90.7151 13.0515 91.0208 12.0155 91.6323 11.2467C92.2437 10.4771 93.054 10.0927 94.0623 10.0927C95.0707 10.0927 95.9046 10.4531 96.4845 11.1732L96.5548 10.2468H97.8797V18.3981C97.8797 19.4786 97.5546 20.3302 96.9036 20.9527C96.2527 21.5753 95.3786 21.8869 94.2812 21.8869C93.6698 21.8869 93.0712 21.7583 92.4863 21.5011C91.9007 21.2439 91.4543 20.8912 91.1457 20.4439L91.8985 19.5874C92.5208 20.3436 93.2808 20.7224 94.18 20.7224C94.8855 20.7224 95.4353 20.5266 95.83 20.1358C96.2247 19.745 96.4221 19.1938 96.4221 18.4836V17.7657C95.8422 18.4243 95.0506 18.7536 94.0466 18.7536C93.0425 18.7536 92.2502 18.36 91.6359 17.5727C91.0215 16.7855 90.7151 15.7121 90.7151 14.3532ZM92.1734 14.515C92.1734 15.457 92.3693 16.1962 92.7612 16.7339C93.153 17.2717 93.7021 17.5409 94.4075 17.5409C95.3219 17.5409 95.9936 17.1318 96.4221 16.3135V12.5003C95.9778 11.7025 95.3118 11.3039 94.4233 11.3039C93.7179 11.3039 93.1667 11.5739 92.7691 12.1145C92.3722 12.6551 92.1734 13.455 92.1734 14.515Z"/>
<path class="test" d="M100.86 10.2468L100.907 11.2969C101.555 10.4941 102.402 10.0927 103.447 10.0927C105.24 10.0927 106.144 11.0884 106.159 13.0798V18.5988H104.708V13.072C104.703 12.4699 104.563 12.0247 104.289 11.7364C104.015 11.4481 103.587 11.3039 103.008 11.3039C102.537 11.3039 102.124 11.4276 101.769 11.6742C101.414 11.9216 101.137 12.2452 100.938 12.6466V18.5974H99.4873V10.2468H100.86Z"/>
<path class="test" d="M115.332 13.5893C114.041 13.2239 113.102 12.7752 112.514 12.2424C111.926 11.7096 111.632 11.0524 111.632 10.2701C111.632 9.38534 111.992 8.65324 112.71 8.07378C113.428 7.49502 114.363 7.20529 115.513 7.20529C116.296 7.20529 116.995 7.35439 117.61 7.6526C118.224 7.95082 118.699 8.3628 119.036 8.88785C119.374 9.4129 119.542 9.98672 119.542 10.6093H118.029C118.029 9.92736 117.81 9.3917 117.371 9.00163C116.931 8.61155 116.312 8.41651 115.513 8.41651C114.77 8.41651 114.191 8.57763 113.776 8.89987C113.362 9.2221 113.154 9.66942 113.154 10.2411C113.154 10.6997 113.351 11.0877 113.746 11.405C114.14 11.7223 114.811 12.012 115.76 12.2749C116.709 12.5378 117.451 12.8275 117.986 13.1441C118.522 13.4607 118.919 13.8296 119.178 14.2514C119.436 14.6733 119.566 15.1701 119.566 15.7411C119.566 16.652 119.206 17.3812 118.484 17.9296C117.763 18.478 116.799 18.7515 115.591 18.7515C114.808 18.7515 114.076 18.6038 113.397 18.3077C112.717 18.0116 112.193 17.6067 111.825 17.0922C111.457 16.5778 111.272 15.9934 111.272 15.3404H112.785C112.785 16.0195 113.04 16.5559 113.55 16.9495C114.059 17.3431 114.74 17.5402 115.591 17.5402C116.386 17.5402 116.995 17.3805 117.418 17.0618C117.841 16.7431 118.053 16.3078 118.053 15.7573C118.053 15.2068 117.857 14.7807 117.465 14.4797C117.073 14.1786 116.362 13.8818 115.333 13.5879L115.332 13.5893Z"/>
<path class="test" d="M123.888 16.5071L125.863 10.2475H127.416L124.006 19.8885C123.478 21.2778 122.64 21.9724 121.49 21.9724L121.216 21.9491L120.675 21.8488V20.6913L121.066 20.7224C121.557 20.7224 121.941 20.6248 122.215 20.4291C122.489 20.2333 122.715 19.8758 122.893 19.3564L123.214 18.5077L120.189 10.2482H121.772L123.888 16.5078L123.888 16.5071Z"/>
<path class="test" d="M132.852 16.3834C132.852 15.9976 132.704 15.698 132.409 15.4846C132.114 15.2711 131.599 15.0867 130.865 14.9327C130.131 14.7786 129.548 14.5928 129.117 14.3772C128.685 14.1617 128.367 13.9038 128.16 13.6055C127.953 13.3073 127.851 12.9519 127.851 12.5406C127.851 11.8565 128.145 11.2771 128.733 10.8036C129.321 10.3302 130.072 10.0934 130.986 10.0934C131.948 10.0934 132.728 10.3379 133.326 10.8269C133.924 11.316 134.224 11.9413 134.224 12.7024H132.765C132.765 12.3116 132.597 11.9746 132.26 11.6912C131.923 11.4085 131.499 11.2665 130.986 11.2665C130.474 11.2665 130.045 11.3796 129.748 11.6064C129.45 11.8332 129.3 12.1286 129.3 12.494C129.3 12.8388 129.439 13.0989 129.716 13.2734C129.993 13.4487 130.493 13.6154 131.217 13.7751C131.941 13.9348 132.528 14.1249 132.977 14.3461C133.426 14.5673 133.759 14.8337 133.977 15.1447C134.194 15.4563 134.302 15.8358 134.302 16.2831C134.302 17.0293 133.999 17.6272 133.393 18.078C132.786 18.5282 132 18.7536 131.033 18.7536C130.353 18.7536 129.753 18.6349 129.23 18.3988C128.708 18.1621 128.299 17.8314 128.004 17.4067C127.709 16.982 127.561 16.5227 127.561 16.0287H129.011C129.037 16.5071 129.232 16.8866 129.595 17.1671C129.959 17.4477 130.438 17.5876 131.034 17.5876C131.583 17.5876 132.023 17.4781 132.355 17.2597C132.686 17.0413 132.853 16.7488 132.853 16.3834H132.852Z"/>
<path class="test" d="M137.704 8.22429V10.2468H139.287V11.3506H137.704V16.5361C137.704 16.871 137.774 17.1219 137.916 17.2894C138.057 17.4569 138.297 17.5402 138.637 17.5402C138.804 17.5402 139.034 17.5092 139.327 17.4477V18.5988C138.945 18.7013 138.574 18.7522 138.213 18.7522C137.565 18.7522 137.077 18.5593 136.747 18.1734C136.418 17.7876 136.253 17.2392 136.253 16.529V11.3499H134.709V10.2461H136.253V8.22359H137.704V8.22429Z"/>
<path class="test" d="M143.594 18.7529C142.445 18.7529 141.51 18.3812 140.788 17.6378C140.067 16.8944 139.707 15.9001 139.707 14.6542V14.3921C139.707 13.5638 139.868 12.824 140.189 12.1731C140.511 11.5223 140.96 11.0128 141.538 10.6446C142.115 10.2764 142.741 10.0927 143.415 10.0927C144.517 10.0927 145.375 10.4503 145.986 11.1654C146.598 11.8806 146.904 12.9045 146.904 14.2373V14.8316H141.158C141.179 15.6549 141.423 16.3198 141.891 16.8272C142.359 17.3339 142.953 17.5876 143.674 17.5876C144.187 17.5876 144.62 17.4844 144.975 17.2788C145.331 17.0731 145.642 16.8004 145.908 16.4605L146.794 17.1396C146.083 18.2151 145.017 18.7529 143.596 18.7529H143.594ZM143.414 11.2658C142.829 11.2658 142.338 11.4757 141.94 11.8947C141.543 12.3145 141.297 12.9017 141.203 13.6585H145.452V13.5504C145.41 12.8247 145.211 12.2629 144.856 11.8636C144.501 11.4651 144.02 11.2651 143.414 11.2651L143.414 11.2658Z"/>
<path class="test" d="M149.452 10.2468L149.491 11.1732C150.113 10.4531 150.951 10.0927 152.007 10.0927C153.194 10.0927 154.001 10.54 154.429 11.4361C154.711 11.0347 155.079 10.7103 155.531 10.4637C155.983 10.2164 156.517 10.0934 157.134 10.0934C158.995 10.0934 159.94 11.0637 159.972 13.0035V18.5995H158.522V13.0883C158.522 12.4911 158.383 12.0452 158.106 11.7491C157.829 11.453 157.364 11.3053 156.711 11.3053C156.173 11.3053 155.725 11.4636 155.37 11.7802C155.015 12.0968 154.808 12.5222 154.751 13.0579V18.6002H153.293V13.1278C153.293 11.9138 152.689 11.3061 151.482 11.3061C150.531 11.3061 149.88 11.7046 149.53 12.5024V18.6002H148.079V10.2468H149.452Z"/>
<path class="test" d="M23.5621 15.6294C23.5621 15.2323 23.4193 14.9221 23.1337 14.7002C22.8473 14.4783 22.3456 14.2486 21.6265 14.0112C20.9081 13.7737 20.3211 13.5434 19.8646 13.3215C18.3805 12.6035 17.6377 11.617 17.6377 10.3627C17.6377 9.73797 17.8228 9.18677 18.1924 8.70907C18.562 8.23136 19.0852 7.85966 19.762 7.59324C20.4388 7.32754 21.1995 7.19398 22.0435 7.19398C22.8875 7.19398 23.6052 7.33885 24.2583 7.62787C24.9113 7.9169 25.4187 8.32888 25.7812 8.86383C26.1429 9.39806 26.3237 10.0093 26.3237 10.6962H23.57C23.57 10.2369 23.4272 9.88001 23.1408 9.62702C22.8552 9.37404 22.4684 9.24754 21.9803 9.24754C21.4923 9.24754 21.0983 9.35496 20.812 9.56908C20.5263 9.7832 20.3835 10.056 20.3835 10.3867C20.3835 10.6757 20.5407 10.9379 20.8557 11.1732C21.1701 11.4085 21.7234 11.6509 22.5157 11.9011C23.308 12.1519 23.9583 12.4212 24.4671 12.7109C25.7051 13.4133 26.3237 14.3815 26.3237 15.616C26.3237 16.6025 25.9462 17.377 25.1905 17.9402C24.4355 18.5027 23.3999 18.7847 22.083 18.7847C21.1543 18.7847 20.3139 18.6207 19.5618 18.2928C18.8089 17.9649 18.2427 17.5155 17.8623 16.9452C17.4819 16.375 17.2917 15.7178 17.2917 14.9736H20.0613C20.0613 15.5778 20.2199 16.0237 20.5371 16.3099C20.8543 16.5961 21.3696 16.7396 22.083 16.7396C22.5394 16.7396 22.8997 16.6428 23.1645 16.4492C23.4293 16.2555 23.5621 15.9835 23.5621 15.6323V15.6294Z"/>
<path class="test" d="M36.7703 9.44753H33.3327V18.6271H30.571V9.44753H27.1958V7.34803H36.7703V9.44753Z"/>
<path class="test" d="M41.8894 14.638H40.3944V18.6271H37.6328V7.34803H42.1406C43.4991 7.34803 44.5613 7.64483 45.327 8.23772C46.0928 8.83132 46.4761 9.66942 46.4761 10.7527C46.4761 11.5371 46.3146 12.1866 45.9923 12.7031C45.6701 13.219 45.1649 13.6366 44.478 13.9568L46.8693 18.5105V18.6271H43.9111L41.8886 14.638H41.8894ZM40.3944 12.5463H42.1406C42.6652 12.5463 43.0599 12.4106 43.3247 12.1385C43.5895 11.8671 43.7223 11.4877 43.7223 11.0008C43.7223 10.5139 43.5888 10.1323 43.3211 9.85528C43.0534 9.57826 42.6602 9.43976 42.1406 9.43976H40.3944V12.5463Z"/>
<path class="test" d="M54.9147 16.5198H51.1304L50.4694 18.6271H47.519L51.7203 7.34803H54.3162L58.549 18.6271H55.5836L54.9147 16.5198ZM51.7914 14.421H54.2537L53.0186 10.5089L51.7907 14.421H51.7914Z"/>
<path class="test" d="M13.1156 7.35439H10.2011V12.1957C10.2011 14.1772 8.5698 15.7828 6.55815 15.7828C4.54649 15.7828 2.91521 14.1765 2.91521 12.1957V3.75111L0 2V12.1965C0 13.5243 0.407641 14.7574 1.10523 15.7835C1.58392 16.4873 2.19969 17.0936 2.91449 17.565C3.95656 18.2519 5.20963 18.6532 6.55743 18.6532C7.90523 18.6532 9.1583 18.2519 10.2004 17.565C10.9152 17.0936 11.5309 16.4873 12.0096 15.7835C12.7072 14.7574 13.1149 13.5236 13.1149 12.1965V7.35439H13.1156Z"/>
<path class="test" d="M14.5646 18.6532C15.3688 18.6532 16.0207 18.0113 16.0207 17.2194C16.0207 16.4275 15.3688 15.7856 14.5646 15.7856C13.7603 15.7856 13.1084 16.4275 13.1084 17.2194C13.1084 18.0113 13.7603 18.6532 14.5646 18.6532Z"/>
<rect width="0.001" height="24" transform="translate(60)"/>
</svg>
